<svg width="220" height="220" viewBox="0 0 220 220" fill="none" xmlns="http://www.w3.org/2000/svg">
<circle cx="110" cy="110" r="110" fill="#D6FF6F"/>
<path d="M80.5821 89.57C82.5286 86.7042 84.8361 84.4293 87.4396 82.8081C90.3233 81.0125 93.4245 80.1015 96.6565 80.1006C99.888 80.1 102.989 81.0091 105.875 82.8038" stroke="#1E1E1E" stroke-width="2" stroke-miterlimit="10" stroke-linecap="round" stroke-linejoin="round"/>
<path d="M114.525 114.507C114.528 129.022 106.534 140.79 96.6696 140.792C86.805 140.795 78.8054 129.03 78.8023 114.516C78.7987 100.001 86.7928 88.233 96.6573 88.2311C106.522 88.2287 114.521 99.9929 114.525 114.507Z" stroke="#1E1E1E" stroke-width="2" stroke-miterlimit="10"/>
<path d="M110.072 120.469C110.073 124.203 108.016 127.231 105.478 127.232C102.94 127.232 100.881 124.205 100.881 120.471C100.88 116.736 102.937 113.708 105.475 113.708C108.013 113.707 110.071 116.734 110.072 120.469Z" fill="#1E1E1E"/>
<path d="M110.183 96.7229C113.446 91.4998 118.128 88.226 123.33 88.2248C133.195 88.2228 141.194 99.9871 141.198 114.501C141.201 129.016 133.207 140.784 123.343 140.786C118.136 140.788 113.449 137.51 110.183 132.281" stroke="#1E1E1E" stroke-width="2" stroke-miterlimit="10"/>
<path d="M136.745 120.462C136.746 124.197 134.689 127.225 132.151 127.225C129.613 127.226 127.555 124.199 127.554 120.464C127.553 116.73 129.61 113.702 132.148 113.701C134.686 113.701 136.745 116.728 136.745 120.462Z" fill="#1E1E1E"/>
<path d="M132.547 82.7981C129.663 81.0035 126.561 80.0939 123.329 80.0949C120.097 80.0954 116.997 81.0065 114.112 82.8024C111.748 84.2744 107.801 88.7889 107.801 88.7889C106.667 90.0827 106.025 90.9891 105.52 91.6441" stroke="#1E1E1E" stroke-width="2" stroke-miterlimit="10" stroke-linecap="round" stroke-linejoin="round"/>
<path d="M188.194 127.099L203.143 131.989L201.546 136.87C200.029 141.508 196.265 143.489 191.583 141.958C186.9 140.426 185.08 136.618 186.597 131.979L188.194 127.099ZM188.246 132.519C187.124 135.948 188.61 138.697 192.259 139.891C195.952 141.099 198.775 139.76 199.897 136.33L200.832 133.472L189.181 129.661L188.246 132.519Z" fill="#1E1E1E"/>
<path d="M182.533 143.327L196.199 151.112L190.92 160.377L189.413 159.519L193.638 152.103L189.317 149.641L185.516 156.313L184.009 155.455L187.81 148.782L182.987 146.034L178.762 153.45L177.254 152.591L182.533 143.327Z" fill="#1E1E1E"/>
<path d="M183.048 165.017C179.675 162.127 176.018 171.695 171.117 167.496C168.816 165.525 169.128 162.565 171.31 160.018C173.507 157.453 176.189 156.704 179.047 158.239L177.602 159.925C175.848 159.093 174.157 159.502 172.683 161.224C171.148 163.016 171.126 164.641 172.32 165.665C175.974 168.794 179.526 159.137 184.357 163.275C186.078 164.75 186.355 167.484 184.098 170.119C182.127 172.42 179.44 173.317 176.517 171.574L177.976 169.87C179.873 170.856 181.431 170.424 182.74 168.895C184.035 167.385 184.102 165.919 183.048 165.017Z" fill="#1E1E1E"/>
<path d="M164.599 167.55L174.979 179.367L173.38 180.772L163.001 168.954L164.599 167.55Z" fill="#1E1E1E"/>
<path d="M148.461 179.329L149.81 178.476L151.269 180.481C151.089 178.378 152.086 176.708 153.845 175.596C157.442 173.321 161.374 174.475 164.068 178.736C166.751 182.979 166.145 187.084 162.392 189.457C159.831 191.077 156.751 191.054 154.425 188.803L156.301 187.616C157.816 188.93 159.773 188.951 161.474 187.876C164.074 186.232 164.332 183.222 162.231 179.899C160.129 176.575 157.304 175.57 154.665 177.239C152.691 178.488 151.893 180.689 153.581 183.617L156.982 181.466L157.885 182.893L152.763 186.132L148.461 179.329Z" fill="#1E1E1E"/>
<path d="M144.826 181.373L150.204 196.154L148.118 196.913L137.518 188.956L136.14 187.808L140.467 199.697L138.467 200.425L133.088 185.645L135.175 184.885L145.729 192.785L147.153 193.99L142.826 182.101L144.826 181.373Z" fill="#1E1E1E"/>
<path d="M128.559 186.919L130.819 202.484L120.267 204.017L120.018 202.3L128.464 201.073L127.749 196.152L120.15 197.256L119.901 195.539L127.5 194.435L126.702 188.942L118.256 190.168L118.006 188.452L128.559 186.919Z" fill="#1E1E1E"/>
<path d="M113.686 188.877L112.926 204.587L107.266 204.314C103.962 204.154 101.942 202.342 102.074 199.616C102.162 197.814 103.101 196.586 104.612 195.988C103.618 195.476 103.128 194.596 102.81 193.029L101.857 188.305L104.098 188.414L104.886 192.713C105.253 194.699 106.021 195.106 107.915 195.198L111.242 195.359L111.561 188.774L113.686 188.877ZM107.396 202.583L110.884 202.752L111.158 197.092L107.716 196.925C105.637 196.824 104.359 197.874 104.275 199.607C104.191 201.34 105.363 202.485 107.396 202.583Z" fill="#1E1E1E"/>
<path d="M80.2564 186.13L80.8216 187.665L76.9023 189.091L78.338 192.989L76.834 193.543L75.3983 189.645L71.5 191.081L70.946 189.577L74.8443 188.141L73.3876 184.233L74.9224 183.668L76.3581 187.566L80.2564 186.13Z" fill="#1E1E1E"/>
<path d="M57.9715 168.595L46.5784 179.439L39.2272 171.715L40.4838 170.519L46.3679 176.701L50.2718 172.986L44.9776 167.423L46.2342 166.227L51.5284 171.79L56.5045 167.054L57.9715 168.595Z" fill="#1E1E1E"/>
<path d="M47.9741 157.846L34.7115 166.301L31.6653 161.523C29.8872 158.734 30.199 156.039 32.5005 154.572C34.0218 153.602 35.567 153.659 36.9283 154.547C36.7713 153.44 37.207 152.531 38.3024 151.367L41.608 147.86L42.8141 149.752L39.7601 152.879C38.3509 154.326 38.4616 155.188 39.4812 156.787L41.2716 159.596L46.8302 156.052L47.9741 157.846ZM33.1529 160.629L35.0304 163.574L39.8089 160.528L37.9562 157.622C36.8372 155.867 35.242 155.43 33.7792 156.362C32.3164 157.295 32.0587 158.913 33.1529 160.629Z" fill="#1E1E1E"/>
<path d="M37.5543 138.165C39.1446 142.484 37.2109 146.203 32.5008 147.938C27.7907 149.672 23.8638 148.11 22.2735 143.791C20.6912 139.493 22.6603 135.737 27.3704 134.002C32.0806 132.268 35.972 133.867 37.5543 138.165ZM35.8396 138.796C34.7048 135.714 31.7899 134.692 28.1216 136.043C24.4316 137.401 22.8535 140.077 23.9882 143.16C25.123 146.242 28.0597 147.256 31.7496 145.897C35.4179 144.547 36.9743 141.879 35.8396 138.796Z" fill="#1E1E1E"/>
<path d="M33.6535 127.63L18.0556 129.651L17.7702 127.449L27.8499 118.842L29.2708 117.749L16.7236 119.375L16.4501 117.265L32.048 115.243L32.3334 117.445L22.3196 126.02L20.8328 127.146L33.38 125.519L33.6535 127.63Z" fill="#1E1E1E"/>
<path d="M32.066 106.091L18.1812 105.043L17.7756 110.417L15.9766 110.281L16.9479 97.4115L18.7469 97.5472L18.3413 102.921L32.2261 103.969L32.066 106.091Z" fill="#1E1E1E"/>
<path d="M26.8634 94.5535L25.1785 94.1407L26.6426 88.1648L28.3276 88.5777L26.8634 94.5535Z" fill="#1E1E1E"/>
<path d="M35.7556 84.8569L21.285 78.6937L25.4634 68.8835L27.0594 69.5633L23.7149 77.4157L28.2902 79.3643L31.2993 72.2993L32.8953 72.9791L29.8862 80.0441L34.9934 82.2194L38.3379 74.367L39.9339 75.0467L35.7556 84.8569Z" fill="#1E1E1E"/>
<path d="M41.5949 71.2996L28.6682 62.3395L29.9332 60.5145L43.1822 60.8892L44.9697 61.0307L34.5713 53.8231L35.7836 52.0742L48.7103 61.0343L47.4453 62.8592L34.2665 62.505L32.4088 62.3431L42.8072 69.5507L41.5949 71.2996Z" fill="#1E1E1E"/>
<path d="M51.4394 57.3865L40.7209 45.8759L44.4788 42.3766C48.0505 39.0507 52.3025 39.1367 55.6599 42.7423C59.0174 46.3478 58.769 50.5613 55.1973 53.8872L51.4394 57.3865ZM54.0151 52.6177C56.6558 50.1587 56.6853 47.0339 54.0688 44.224C51.4206 41.3801 48.3017 41.1872 45.661 43.6461L43.4604 45.6953L51.8146 54.6668L54.0151 52.6177Z" fill="#1E1E1E"/>
<path d="M70.3299 41.6909L63.6515 27.4508L68.3005 25.2705C72.7191 23.1982 76.7405 24.5823 78.8324 29.0428C80.9243 33.5034 79.3975 37.4384 74.9789 39.5106L70.3299 41.6909ZM74.2423 37.94C77.5092 36.4079 78.4942 33.4423 76.8639 29.966C75.2139 26.4479 72.3039 25.309 69.0371 26.8411L66.3147 28.1179L71.5199 39.2168L74.2423 37.94Z" fill="#1E1E1E"/>
<path d="M86.0253 34.6455L82.3508 19.3524L92.7187 16.8613L93.124 18.548L84.8252 20.542L85.987 25.3773L93.4536 23.5833L93.8589 25.2701L86.3922 27.0641L87.6891 32.4617L95.9879 30.4677L96.3932 32.1545L86.0253 34.6455Z" fill="#1E1E1E"/>
<path d="M100.516 15.5534L105.796 27.6319L106.315 28.9999L106.721 27.5945L111.008 15.129L113.112 15.044L107.576 31.0091L105.127 31.1082L98.2973 15.6431L100.516 15.5534Z" fill="#1E1E1E"/>
<path d="M116.741 30.886L119.186 15.3489L129.72 17.0069L129.45 18.7206L121.019 17.3934L120.245 22.3059L127.831 23.5L127.561 25.2136L119.976 24.0195L119.112 29.5032L127.544 30.8304L127.274 32.544L116.741 30.886Z" fill="#1E1E1E"/>
<path d="M131.507 33.4393L136.735 18.605L138.742 19.3123L134.091 32.5104L141.551 35.1396L140.975 36.7757L131.507 33.4393Z" fill="#1E1E1E"/>
<path d="M149.903 41.5687C145.955 39.2022 145.129 35.093 147.709 30.7879C150.29 26.4829 154.327 25.2356 158.275 27.602C162.203 29.9566 163.026 34.1174 160.446 38.4224C157.865 42.7275 153.831 43.9232 149.903 41.5687ZM150.843 40.0014C153.66 41.69 156.571 40.6574 158.581 37.3046C160.602 33.932 160.153 30.8579 157.336 29.1693C154.519 27.4807 151.596 28.5331 149.574 31.9058C147.564 35.2585 148.026 38.3128 150.843 40.0014Z" fill="#1E1E1E"/>
<path d="M159.487 47.3374L170.189 35.8113L174.138 39.4783C176.748 41.902 177.102 44.8185 175.009 47.0729C172.853 49.3951 169.932 49.2087 167.356 46.8165L164.949 44.5817L161.046 48.7853L159.487 47.3374ZM172.941 40.7339L170.568 38.5305L166.129 43.3104L168.452 45.4666C170.164 47.0561 172.013 47.0694 173.383 45.5947C174.736 44.137 174.585 42.2605 172.941 40.7339Z" fill="#1E1E1E"/>
<path d="M170.633 57.9547L183.311 48.6461L189.622 57.241L188.223 58.2677L183.172 51.388L179.163 54.3312L183.708 60.521L182.31 61.5477L177.765 55.3579L173.29 58.6433L178.342 65.523L176.944 66.5497L170.633 57.9547Z" fill="#1E1E1E"/>
<path d="M179.178 69.7667L193.394 63.0355L195.819 68.1571C197.235 71.1465 196.588 73.7814 194.122 74.9494C192.491 75.7215 190.965 75.4716 189.725 74.4208C189.743 75.5385 189.197 76.3856 187.965 77.4042L184.247 80.4699L183.287 78.4421L186.707 75.7219C188.286 74.4624 188.284 73.5932 187.472 71.879L186.047 68.8687L180.089 71.6899L179.178 69.7667ZM194.231 68.8577L192.737 65.7011L187.615 68.1263L189.09 71.2411C189.981 73.1226 191.509 73.7554 193.077 73.013C194.645 72.2706 195.102 70.6974 194.231 68.8577Z" fill="#1E1E1E"/>
<path d="M192.602 100.682L193.692 99.4632L196.79 102.255L199.559 99.1584L200.754 100.227L197.985 103.324L201.082 106.093L200.014 107.288L196.917 104.519L194.149 107.638L192.93 106.548L195.699 103.451L192.602 100.682Z" fill="#1E1E1E"/>
</svg>
