<svg width="1552" height="244" viewBox="0 0 1552 244" fill="none" xmlns="http://www.w3.org/2000/svg">
<path d="M0.120144 99V2.05515H31.7698C61.8512 2.05515 80.6699 20.3036 80.6699 50.6701C80.6699 81.0367 61.8512 99 31.7698 99H0.120144ZM31.7698 88.3076C54.0101 88.3076 67.2687 74.3361 67.2687 50.6701C67.2687 26.7191 54.0101 12.7476 31.7698 12.7476H13.2362V88.3076H31.7698ZM96.6752 99V2.05515H162.398V12.7476H109.791V43.3993H157.123V54.0917H109.791V88.3076H162.398V99H96.6752ZM186.921 25.7211C186.921 53.0938 246.371 31.8514 246.371 71.6273C246.371 90.3035 231.259 100.711 210.586 100.711C189.772 100.711 175.515 91.1589 171.238 71.6273H184.925C188.061 83.1752 196.758 89.4481 210.729 89.4481C225.271 89.4481 232.969 83.0326 232.969 73.3381C232.969 43.6844 173.519 65.7821 173.519 26.5765C173.519 12.605 185.21 0.344359 206.595 0.344359C225.271 0.344359 240.24 9.32602 243.804 29.9981H229.975C226.982 17.1671 218.713 11.6071 206.309 11.6071C194.049 11.6071 186.921 17.1671 186.921 25.7211ZM259.991 99V2.05515H273.107V99H259.991ZM372.197 99H362.36L361.362 83.7454C355.374 95.2933 344.682 100.711 331.851 100.711C305.619 100.711 288.939 81.7495 288.939 50.6701C288.939 19.7333 305.619 0.344359 332.992 0.344359C351.668 0.344359 367.635 10.6091 372.34 29.9981H358.653C355.089 18.1651 344.967 11.6071 332.564 11.6071C313.603 11.6071 302.34 26.4339 302.34 50.6701C302.34 74.9064 313.745 89.4481 332.992 89.4481C347.391 89.4481 358.796 80.609 359.651 59.7944H334.845V49.387H372.197V99ZM389.615 99V2.05515H403.301L447.924 70.4868L453.484 80.0387V2.05515H466.6V99H452.914L408.433 30.996L402.731 21.0164V99H389.615ZM486.031 99V2.05515H551.753V12.7476H499.147V43.3993H546.479V54.0917H499.147V88.3076H551.753V99H486.031ZM566.296 99V2.05515H601.225C621.612 2.05515 634.585 12.605 634.585 29.4278C634.585 40.548 629.168 48.3891 620.044 52.5235C626.317 55.3748 629.596 60.6498 632.019 70.2017L639.29 99H625.461L619.331 72.7679C616.48 60.6498 611.632 58.3687 599.942 58.3687H579.412V99H566.296ZM600.94 12.7476H579.412V47.6763H600.655C613.486 47.6763 621.042 40.8331 621.042 30.1406C621.042 19.4482 613.486 12.7476 600.94 12.7476ZM742.934 99L733.81 75.7618H687.334L678.209 99H665.236L703.301 2.05515H718.413L756.621 99H742.934ZM707.721 23.2975L691.326 65.2119H729.818L713.423 23.2975L710.572 14.7435L707.721 23.2975ZM767.693 99V2.05515H781.379L826.002 70.4868L831.563 80.0387V2.05515H844.679V99H830.992L786.512 30.996L780.809 21.0164V99H767.693ZM864.109 99V2.05515H895.758C925.84 2.05515 944.659 20.3036 944.659 50.6701C944.659 81.0367 925.84 99 895.758 99H864.109ZM895.758 88.3076C917.999 88.3076 931.257 74.3361 931.257 50.6701C931.257 26.7191 917.999 12.7476 895.758 12.7476H877.225V88.3076H895.758ZM0.120144 242V145.055H65.8431V155.748H13.2362V188.965H60.5681V199.658H13.2362V242H0.120144ZM79.1329 242V145.055H114.062C134.448 145.055 147.422 155.605 147.422 172.428C147.422 183.548 142.004 191.389 132.88 195.524C139.153 198.375 142.432 203.65 144.856 213.202L152.127 242H138.298L132.167 215.768C129.316 203.65 124.469 201.369 112.778 201.369H92.2489V242H79.1329ZM113.776 155.748H92.2489V190.676H113.491C126.322 190.676 133.878 183.833 133.878 173.141C133.878 162.448 126.322 155.748 113.776 155.748ZM207.167 243.711C178.796 243.711 161.403 224.607 161.403 193.67C161.403 162.733 178.796 143.344 207.167 143.344C235.395 143.344 252.931 162.733 252.931 193.67C252.931 224.607 235.395 243.711 207.167 243.711ZM207.167 232.448C227.411 232.448 239.53 217.764 239.53 193.67C239.53 169.434 227.411 154.607 207.167 154.607C186.923 154.607 174.805 169.434 174.805 193.67C174.805 217.764 186.923 232.448 207.167 232.448ZM268.762 242V145.055H282.449L327.072 213.487L332.632 223.039V145.055H345.748V242H332.062L287.581 173.996L281.878 164.016V242H268.762ZM391.695 242V156.175H358.477V145.055H438.029V156.175H404.811V242H391.695ZM435.108 208.497V197.805H473.03V208.497H435.108ZM491.182 242V145.055H556.905V155.748H504.298V186.399H551.63V197.092H504.298V231.308H556.905V242H491.182ZM571.448 242V145.055H585.134L629.757 213.487L635.317 223.039V145.055H648.433V242H634.747L590.266 173.996L584.564 164.016V242H571.448ZM667.863 242V145.055H699.513C729.594 145.055 748.413 163.304 748.413 193.67C748.413 224.037 729.594 242 699.513 242H667.863ZM699.513 231.308C721.753 231.308 735.012 217.336 735.012 193.67C735.012 169.719 721.753 155.748 699.513 155.748H680.979V231.308H699.513ZM790.108 242V145.055H821.758C851.839 145.055 870.658 163.304 870.658 193.67C870.658 224.037 851.839 242 821.758 242H790.108ZM821.758 231.308C843.998 231.308 857.257 217.336 857.257 193.67C857.257 169.719 843.998 155.748 821.758 155.748H803.224V231.308H821.758ZM886.663 242V145.055H952.386V155.748H899.779V186.399H947.111V197.092H899.779V231.308H952.386V242H886.663ZM972.346 145.055L1001.86 220.758L1004.71 229.312L1007.56 220.758L1037.07 145.055H1050.04L1011.98 242H996.868L958.66 145.055H972.346ZM1061.12 242V145.055H1126.84V155.748H1074.23V186.399H1121.57V197.092H1074.23V231.308H1126.84V242H1061.12ZM1141.38 242V145.055H1154.5V231.308H1203.26V242H1141.38ZM1253.27 243.711C1224.9 243.711 1207.5 224.607 1207.5 193.67C1207.5 162.733 1224.9 143.344 1253.27 143.344C1281.5 143.344 1299.03 162.733 1299.03 193.67C1299.03 224.607 1281.5 243.711 1253.27 243.711ZM1253.27 232.448C1273.51 232.448 1285.63 217.764 1285.63 193.67C1285.63 169.434 1273.51 154.607 1253.27 154.607C1233.02 154.607 1220.9 169.434 1220.9 193.67C1220.9 217.764 1233.02 232.448 1253.27 232.448ZM1314.86 242V145.055H1348.08C1370.04 145.055 1383.86 156.746 1383.86 175.707C1383.86 195.238 1369.89 206.644 1348.22 206.644H1327.98V242H1314.86ZM1347.94 155.748H1327.98V195.951H1347.51C1361.91 195.951 1370.32 188.253 1370.32 175.849C1370.32 163.589 1361.77 155.748 1347.94 155.748ZM1397.77 242V145.055H1463.5V155.748H1410.89V186.399H1458.22V197.092H1410.89V231.308H1463.5V242H1397.77ZM1478.04 242V145.055H1512.97C1533.35 145.055 1546.33 155.605 1546.33 172.428C1546.33 183.548 1540.91 191.389 1531.79 195.524C1538.06 198.375 1541.34 203.65 1543.76 213.202L1551.03 242H1537.2L1531.07 215.768C1528.22 203.65 1523.37 201.369 1511.68 201.369H1491.16V242H1478.04ZM1512.68 155.748H1491.16V190.676H1512.4C1525.23 190.676 1532.78 183.833 1532.78 173.141C1532.78 162.448 1525.23 155.748 1512.68 155.748Z" fill="#1E1E1E"/>
</svg>
