<svg width="220" height="220" viewBox="0 0 220 220" fill="none" xmlns="http://www.w3.org/2000/svg">
<circle cx="110" cy="110" r="110" fill="#D6FF6F"/>
<path d="M188.484 125.727L203.516 130.356L202.005 135.264C200.569 139.928 196.841 141.975 192.132 140.525C187.424 139.075 185.537 135.299 186.973 130.635L188.484 125.727ZM188.631 131.145C187.569 134.594 189.103 137.317 192.772 138.447C196.486 139.59 199.285 138.202 200.347 134.753L201.232 131.879L189.516 128.272L188.631 131.145Z" fill="#1E1E1E"/>
<path d="M183.107 142.051L196.907 149.598L191.791 158.953L190.269 158.121L194.364 150.632L190.001 148.246L186.317 154.984L184.795 154.152L188.479 147.414L183.608 144.751L179.513 152.239L177.991 151.407L183.107 142.051Z" fill="#1E1E1E"/>
<path d="M184.001 163.729C180.579 160.899 177.089 170.529 172.115 166.417C169.78 164.486 170.041 161.52 172.178 158.936C174.33 156.333 176.998 155.538 179.882 157.022L178.467 158.734C176.699 157.932 175.016 158.371 173.572 160.118C172.068 161.936 172.074 163.562 173.287 164.564C176.994 167.63 180.377 157.912 185.28 161.965C187.027 163.409 187.351 166.139 185.14 168.813C183.209 171.148 180.539 172.091 177.586 170.4L179.015 168.67C180.929 169.623 182.479 169.163 183.761 167.613C185.029 166.08 185.071 164.613 184.001 163.729Z" fill="#1E1E1E"/>
<path d="M165.6 166.584L176.184 178.219L174.61 179.65L164.025 168.016L165.6 166.584Z" fill="#1E1E1E"/>
<path d="M149.669 178.643L151.003 177.766L152.497 179.746C152.28 177.647 153.247 175.959 154.987 174.816C158.544 172.479 162.495 173.564 165.264 177.778C168.02 181.973 167.486 186.088 163.774 188.527C161.242 190.19 158.163 190.221 155.797 188.011L157.653 186.792C159.191 188.079 161.147 188.066 162.829 186.961C165.4 185.272 165.606 182.258 163.447 178.972C161.288 175.686 158.446 174.73 155.836 176.445C153.884 177.728 153.125 179.942 154.863 182.841L158.227 180.631L159.154 182.042L154.089 185.37L149.669 178.643Z" fill="#1E1E1E"/>
<path d="M146.07 180.751L151.706 195.435L149.633 196.23L138.896 188.459L137.498 187.336L142.032 199.148L140.045 199.91L134.409 185.226L136.482 184.43L147.173 192.145L148.617 193.325L144.083 181.513L146.07 180.751Z" fill="#1E1E1E"/>
<path d="M129.902 186.579L132.434 202.103L121.91 203.819L121.631 202.107L130.055 200.733L129.254 195.825L121.675 197.061L121.396 195.349L128.975 194.113L128.081 188.634L119.658 190.008L119.378 188.296L129.902 186.579Z" fill="#1E1E1E"/>
<path d="M115.066 188.797L114.581 204.518L108.916 204.343C105.61 204.241 103.559 202.465 103.644 199.737C103.699 197.933 104.617 196.689 106.117 196.064C105.115 195.57 104.609 194.699 104.264 193.138L103.229 188.431L105.472 188.5L106.334 192.785C106.736 194.764 107.511 195.159 109.407 195.217L112.736 195.32L112.939 188.731L115.066 188.797ZM109.016 202.61L112.507 202.718L112.682 197.054L109.237 196.947C107.157 196.883 105.897 197.955 105.844 199.689C105.79 201.423 106.982 202.547 109.016 202.61Z" fill="#1E1E1E"/>
<path d="M81.5936 186.634L82.1855 188.158L78.2917 189.652L79.7952 193.525L78.3011 194.105L76.7976 190.233L72.9249 191.736L72.3448 190.242L76.2175 188.738L74.6928 184.856L76.2174 184.264L77.721 188.137L81.5936 186.634Z" fill="#1E1E1E"/>
<path d="M59.0061 169.49L47.804 180.531L40.3191 172.936L41.5546 171.719L47.5458 177.797L51.3842 174.014L45.9938 168.545L47.2293 167.327L52.6197 172.797L57.5124 167.975L59.0061 169.49Z" fill="#1E1E1E"/>
<path d="M48.8227 158.917L35.7097 167.603L32.5805 162.878C30.7541 160.12 31.0188 157.42 33.2943 155.913C34.7984 154.917 36.3444 154.947 37.721 155.811C37.5447 154.707 37.9645 153.791 39.0394 152.608L42.2833 149.044L43.5222 150.915L40.5232 154.094C39.1395 155.565 39.2652 156.425 40.3126 158.007L42.1518 160.783L47.6477 157.143L48.8227 158.917ZM34.0523 161.959L35.981 164.871L40.7055 161.741L38.8024 158.868C37.6529 157.132 36.0504 156.723 34.6041 157.681C33.1578 158.639 32.9284 160.262 34.0523 161.959Z" fill="#1E1E1E"/>
<path d="M38.061 139.421C39.7264 143.712 37.858 147.464 33.1789 149.28C28.4997 151.096 24.5461 149.604 22.8807 145.313C21.2237 141.043 23.1269 137.253 27.8061 135.437C32.4852 133.621 36.404 135.151 38.061 139.421ZM36.3576 140.082C35.1692 137.02 32.2369 136.049 28.5927 137.464C24.927 138.886 23.3958 141.589 24.5842 144.651C25.7726 147.713 28.7265 148.676 32.3922 147.253C36.0363 145.839 37.5459 143.144 36.3576 140.082Z" fill="#1E1E1E"/>
<path d="M33.977 128.955L18.4167 131.249L18.0929 129.052L28.0209 120.271L29.4225 119.152L16.9056 120.997L16.5953 118.892L32.1556 116.598L32.4794 118.795L22.6167 127.544L21.1498 128.695L33.6667 126.85L33.977 128.955Z" fill="#1E1E1E"/>
<path d="M32.0138 107.448L18.1129 106.642L17.8011 112.022L16 111.918L16.7466 99.0332L18.5477 99.1375L18.236 104.518L32.1369 105.323L32.0138 107.448Z" fill="#1E1E1E"/>
<path d="M26.6108 96.0026L24.9189 95.6193L26.2785 89.6188L27.9704 90.0021L26.6108 96.0026Z" fill="#1E1E1E"/>
<path d="M35.3323 86.1523L20.7563 80.2426L24.7628 70.3609L26.3705 71.0128L23.1635 78.9223L27.7721 80.7909L30.6575 73.6744L32.2651 74.3262L29.3797 81.4427L34.5242 83.5285L37.7311 75.6189L39.3387 76.2707L35.3323 86.1523Z" fill="#1E1E1E"/>
<path d="M40.9341 72.4951L27.853 63.762L29.0859 61.9152L42.3395 62.0586L44.1292 62.1689L33.6066 55.1438L34.7882 53.374L47.8693 62.1072L46.6363 63.9539L33.4534 63.8298L31.5931 63.7003L42.1157 70.7253L40.9341 72.4951Z" fill="#1E1E1E"/>
<path d="M50.5343 58.4123L39.6165 47.0905L43.3127 43.5261C46.8258 40.1384 51.0787 40.1502 54.4985 43.6966C57.9184 47.243 57.7436 51.4602 54.2305 54.848L50.5343 58.4123ZM53.0263 53.5992C55.6237 51.0946 55.5987 47.9697 52.9335 45.2059C50.2361 42.4087 47.1142 42.2702 44.5169 44.7748L42.3524 46.8621L50.8619 55.6865L53.0263 53.5992Z" fill="#1E1E1E"/>
<path d="M69.1478 42.3895L62.2219 28.2681L66.8322 26.007C71.2139 23.8579 75.2589 25.1716 77.4283 29.5949C79.5977 34.0183 78.1399 37.9793 73.7581 40.1284L69.1478 42.3895ZM72.9942 38.5709C76.2338 36.982 77.167 33.9996 75.4762 30.5523C73.7651 27.0635 70.8357 25.9756 67.596 27.5645L64.8964 28.8885L70.2945 39.8949L72.9942 38.5709Z" fill="#1E1E1E"/>
<path d="M84.7181 35.0712L80.7773 19.8445L91.1002 17.1729L91.5348 18.8523L83.2721 20.9907L84.5181 25.8051L91.9523 23.881L92.3869 25.5604L84.9527 27.4845L86.3436 32.8586L94.6063 30.7202L95.041 32.3996L84.7181 35.0712Z" fill="#1E1E1E"/>
<path d="M98.8733 15.7291L104.364 27.7136L104.906 29.0723L105.287 27.6601L109.357 15.1217L111.458 14.9999L106.202 31.0592L103.755 31.201L96.6565 15.8575L98.8733 15.7291Z" fill="#1E1E1E"/>
<path d="M115.363 30.7761L117.537 15.1987L128.098 16.6727L127.858 18.3908L119.405 17.211L118.717 22.1362L126.323 23.1977L126.083 24.9158L118.478 23.8543L117.71 29.3522L126.163 30.532L125.923 32.2501L115.363 30.7761Z" fill="#1E1E1E"/>
<path d="M130.172 33.0714L135.14 18.1482L137.159 18.8203L132.739 32.0976L140.244 34.5962L139.697 36.2421L130.172 33.0714Z" fill="#1E1E1E"/>
<path d="M148.707 40.8785C144.718 38.5813 143.82 34.4872 146.325 30.1377C148.83 25.7883 152.845 24.4707 156.834 26.7679C160.802 29.0536 161.698 33.1994 159.193 37.5488C156.688 41.8982 152.676 43.1642 148.707 40.8785ZM149.619 39.2951C152.465 40.9343 155.358 39.851 157.309 36.4637C159.271 33.0563 158.768 29.9905 155.922 28.3513C153.076 26.7121 150.171 27.8154 148.209 31.2228C146.258 34.6102 146.773 37.6559 149.619 39.2951Z" fill="#1E1E1E"/>
<path d="M158.39 46.4792L168.889 34.7681L172.902 38.3656C175.554 40.7433 175.958 43.6532 173.905 45.9438C171.79 48.3032 168.867 48.1679 166.249 45.821L163.803 43.6285L159.974 47.8996L158.39 46.4792ZM171.726 39.6418L169.315 37.4802L164.961 42.3369L167.321 44.4521C169.06 46.0116 170.91 45.9925 172.253 44.4942C173.581 43.0131 173.397 41.1395 171.726 39.6418Z" fill="#1E1E1E"/>
<path d="M169.719 56.9002L182.233 47.3717L188.693 55.8552L187.313 56.9061L182.142 50.1157L178.185 53.1284L182.838 59.2379L181.457 60.2889L176.805 54.1793L172.389 57.5423L177.559 64.3328L176.179 65.3837L169.719 56.9002Z" fill="#1E1E1E"/>
<path d="M178.47 68.5613L192.566 61.583L195.08 66.6616C196.547 69.6258 195.947 72.2715 193.501 73.4825C191.884 74.2829 190.354 74.0596 189.096 73.0306C189.133 74.1479 188.603 75.0044 187.388 76.0443L183.724 79.1744L182.729 77.1637L186.102 74.3842C187.658 73.0973 187.641 72.2283 186.8 70.5286L185.322 67.5436L179.414 70.4683L178.47 68.5613ZM193.505 67.3898L191.955 64.2597L186.877 66.7739L188.406 69.8625C189.329 71.7281 190.868 72.3342 192.423 71.5645C193.977 70.7949 194.408 69.2139 193.505 67.3898Z" fill="#1E1E1E"/>
<path d="M192.431 99.2381L193.499 98L196.646 100.738L199.36 97.5929L200.574 98.6402L197.859 101.785L201.004 104.499L199.957 105.713L196.812 102.998L194.099 106.166L192.861 105.097L195.575 101.953L192.431 99.2381Z" fill="#1E1E1E"/>
<path d="M80.582 89.5701C82.5286 86.7043 84.836 84.4294 87.4396 82.8082C90.3232 81.0126 93.4244 80.1016 96.6564 80.1007C99.8879 80.1001 102.989 81.0092 105.875 82.8038" stroke="#1E1E1E" stroke-width="2" stroke-miterlimit="10" stroke-linecap="round" stroke-linejoin="round"/>
<path d="M114.525 114.507C114.528 129.022 106.534 140.79 96.6696 140.792C86.805 140.794 78.8054 129.03 78.8023 114.516C78.7987 100.001 86.7928 88.233 96.6573 88.231C106.522 88.2287 114.521 99.9929 114.525 114.507Z" stroke="#1E1E1E" stroke-width="2" stroke-miterlimit="10"/>
<path d="M110.072 120.469C110.073 124.203 108.016 127.231 105.478 127.232C102.94 127.232 100.881 124.205 100.881 120.471C100.88 116.736 102.937 113.708 105.475 113.708C108.013 113.707 110.071 116.734 110.072 120.469Z" fill="#1E1E1E"/>
<path d="M132.375 82.5557C129.489 80.761 126.388 79.8519 123.156 79.8525C119.924 79.8534 116.823 80.7644 113.94 82.56C111.336 84.1812 109.029 86.4561 107.082 89.3219C106.555 90.0479 105.5 91.5 105.5 91.5" stroke="#1E1E1E" stroke-width="2" stroke-miterlimit="10" stroke-linecap="round" stroke-linejoin="round"/>
<path d="M110.183 96.7229C113.446 91.4997 118.128 88.226 123.33 88.2247C133.195 88.2228 141.194 99.987 141.198 114.501C141.201 129.016 133.207 140.784 123.343 140.786C118.136 140.788 113.449 137.51 110.183 132.281" stroke="#1E1E1E" stroke-width="2" stroke-miterlimit="10"/>
<path d="M136.745 120.462C136.746 124.197 134.689 127.225 132.151 127.225C129.613 127.226 127.555 124.199 127.554 120.464C127.553 116.73 129.61 113.702 132.148 113.701C134.686 113.701 136.744 116.728 136.745 120.462Z" fill="#1E1E1E"/>
</svg>
